<svg width="142" height="73" viewBox="0 0 142 73" fill="none" xmlns="http://www.w3.org/2000/svg">
<path d="M56.6801 55.1702C53.89 55.1702 51.5648 54.2202 49.7047 52.3203C47.8446 50.4204 46.9146 47.4488 46.9146 43.4054C46.9146 39.8005 47.6243 36.025 49.0439 32.0791C50.5124 28.0844 52.6662 24.723 55.5053 21.995C58.3934 19.2182 61.8199 17.8298 65.7849 17.8298C67.7919 17.8298 69.2848 18.1708 70.2638 18.8528C71.2429 19.5348 71.7324 20.4361 71.7324 21.5565V21.8488L75.3302 5.04204L86.1972 3.58058L77.7532 43.04C77.5574 43.7708 77.4595 44.5502 77.4595 45.3784C77.4595 46.3527 77.6798 47.059 78.1204 47.4975C78.6099 47.8872 79.3931 48.0821 80.47 48.0821C81.8406 48.0821 83.0154 47.4975 83.9944 46.3283C85.0224 45.1592 85.83 43.6003 86.4175 41.6517H89.5013C86.5154 50.3717 81.5958 54.7317 74.7428 54.7317C72.7358 54.7317 71.096 54.1959 69.8233 53.1241C68.5995 52.0524 67.8408 50.4935 67.5471 48.4474C66.2744 50.396 64.7325 52.0037 62.9213 53.2703C61.1591 54.5369 59.0787 55.1702 56.6801 55.1702ZM61.4528 48.0821C62.6276 48.0821 63.8024 47.5462 64.9772 46.4745C66.201 45.4027 67.0331 43.9169 67.4737 42.017V41.6517L71.0715 24.9179C70.631 23.2129 69.6275 22.3603 68.0611 22.3603C66.1031 22.3603 64.3409 23.5051 62.7745 25.7948C61.208 28.0357 59.9843 30.7637 59.1032 33.979C58.2221 37.1455 57.7815 39.9466 57.7815 42.3824C57.7815 44.8181 58.1242 46.377 58.8095 47.0591C59.5437 47.7411 60.4248 48.0821 61.4528 48.0821Z" fill="#8096E7"/>
<path d="M93.7153 55.1702C91.3656 55.1702 89.4566 54.4394 87.9881 52.978C86.5685 51.5165 85.8587 49.3243 85.8587 46.4014C85.8587 45.1835 86.0545 43.6003 86.4461 41.6517L91.4391 18.1952H102.012L96.7257 43.04C96.5299 43.7708 96.432 44.5502 96.432 45.3784C96.432 46.3527 96.6523 47.059 97.0928 47.4975C97.5823 47.8872 98.3655 48.0821 99.4424 48.0821C100.862 48.0821 102.184 47.4975 103.407 46.3283C104.631 45.1104 105.512 43.5516 106.051 41.6517H109.135C107.323 46.9129 104.998 50.4935 102.159 52.3934C99.3201 54.2446 96.5054 55.1702 93.7153 55.1702Z" fill="#8096E7"/>
<path d="M99.9272 73C97.2349 73 95.0566 72.2449 93.3923 70.7347C91.679 69.2733 90.8224 67.3003 90.8224 64.8158C90.8224 62.7698 91.4098 61.0891 92.5846 59.7738C93.7594 58.4585 95.2035 57.4111 96.9167 56.6316C98.63 55.8522 100.833 55.024 103.525 54.1472L111.675 15.7107C112.997 9.66998 115.2 5.55355 118.284 3.36136C121.367 1.12046 124.892 0 128.857 0C132.528 0 135.636 0.608943 138.182 1.82683C140.727 3.04471 142 5.23689 142 8.40339C142 10.4494 141.437 11.9596 140.311 12.9339C139.234 13.8595 137.864 14.3223 136.199 14.3223C134.927 14.3223 133.874 14.03 133.042 13.4454C132.21 12.8121 131.794 11.7891 131.794 10.3764C131.794 9.45077 132.014 8.62261 132.455 7.89188C132.944 7.16115 133.556 6.79579 134.29 6.79579C134.633 6.79579 134.829 6.82015 134.878 6.86886C134.829 5.89456 134.437 5.16383 133.703 4.67667C133.018 4.18952 132.063 3.94594 130.839 3.94594C128.685 3.94594 126.948 4.72539 125.626 6.28428C124.353 7.84317 123.497 9.81613 123.056 12.2032L121.808 18.1952H127.682L127.095 21.1181H121.221L112.85 60.5776C111.871 65.1568 110.182 68.372 107.784 70.2232C105.385 72.0744 102.766 73 99.9272 73ZM132.895 55.1702C130.546 55.1702 128.637 54.4394 127.168 52.978C125.748 51.5165 125.039 49.3243 125.039 46.4014C125.039 45.1835 125.234 43.6003 125.626 41.6517L130.619 18.1952H141.192L135.906 43.04C135.71 43.7708 135.612 44.5502 135.612 45.3784C135.612 46.3527 135.832 47.059 136.273 47.4975C136.762 47.8872 137.545 48.0821 138.622 48.0821C139.503 48.0821 140.287 47.9359 140.972 47.6436C140.776 50.0794 139.895 51.955 138.329 53.2703C136.811 54.5369 135 55.1702 132.895 55.1702ZM97.8712 66.4965C98.7034 66.4965 99.5356 66.0337 100.368 65.1081C101.151 64.1825 101.738 62.7454 102.13 60.7968L103.011 56.5586C100.515 57.338 98.5321 58.3123 97.0636 59.4815C95.5951 60.6994 94.8608 62.0634 94.8608 63.5736C94.8608 64.6453 95.2035 65.4004 95.8888 65.8388C96.5741 66.2773 97.2349 66.4965 97.8712 66.4965Z" fill="#8096E7"/>
<path d="M97.8597 16.6852C96.2443 16.6852 94.8737 16.1249 93.7479 15.0045C92.622 13.884 92.0591 12.52 92.0591 10.9124C92.0591 9.30479 92.622 7.94076 93.7479 6.82031C94.8737 5.65114 99.3279 0.905334 100.062 3.31675C100.796 5.72816 100.846 5.65114 101.972 6.82031C103.146 7.94076 103.734 9.30479 103.734 10.9124C103.734 12.52 103.146 13.884 101.972 15.0045C100.846 16.1249 99.4751 16.6852 97.8597 16.6852Z" fill="#F486A1"/>
<path d="M7.85652 56.9321C5.50691 56.9321 3.59785 56.2013 2.12934 54.7399C0.709779 53.2784 0 51.0862 0 48.1633C0 46.9454 0.195801 45.3622 0.587404 43.4135L8.44393 6.80393L19.3109 5.34247L10.867 44.8019C10.6712 45.5327 10.5733 46.3121 10.5733 47.1403C10.5733 48.1146 10.7935 48.8209 11.2341 49.2594C11.7236 49.6491 12.5068 49.844 13.5837 49.844C15.0033 49.844 16.3249 49.2594 17.5487 48.0902C18.7724 46.8723 19.6535 45.3134 20.192 43.4135H23.2759C21.4647 48.6748 19.1396 52.2554 16.3005 54.1553C13.4613 56.0065 10.6467 56.9321 7.85652 56.9321Z" fill="#7087D9"/>
<path d="M30.5157 56.9321C26.9424 56.9321 24.1522 56.0065 22.1452 54.1553C20.1383 52.2554 19.1348 49.3081 19.1348 45.3134C19.1348 41.9521 19.7956 38.2497 21.1173 34.2063C22.4389 30.163 24.5927 26.6798 27.5787 23.7569C30.5647 20.7852 34.3583 19.2994 38.9597 19.2994C44.3442 19.2994 47.0365 21.6378 47.0365 26.3144C47.0365 29.0425 46.2533 31.5513 44.6868 33.841C43.1204 36.1306 41.0401 37.9818 38.4457 39.3945C35.8513 40.7586 33.0856 41.538 30.1486 41.7329C30.0507 42.8046 30.0018 43.5353 30.0018 43.9251C30.0018 47.9684 31.5192 49.9901 34.5541 49.9901C35.9247 49.9901 37.3933 49.6248 38.9597 48.894C40.5261 48.1633 41.9456 47.2377 43.2183 46.1172C41.8967 53.3271 37.6625 56.9321 30.5157 56.9321ZM30.6626 38.2254C32.5227 38.1766 34.2604 37.5677 35.8758 36.3985C37.5401 35.2294 38.8618 33.7435 39.8408 31.9411C40.8687 30.0899 41.3827 28.1656 41.3827 26.1683C41.3827 24.171 40.7708 23.1723 39.5471 23.1723C37.8338 23.1723 36.1205 24.7312 34.4073 27.849C32.743 30.918 31.4947 34.3768 30.6626 38.2254Z" fill="#7087D9"/>
</svg>
