<svg width="75" height="75" viewBox="0 0 75 75" fill="none" xmlns="http://www.w3.org/2000/svg">
<g clip-path="url(#clip0)">
<path d="M37.5001 0C35.4129 0 33.7206 1.69213 33.7206 3.77956V16.9448C33.7206 19.0322 35.4127 20.7243 37.5001 20.7243C39.5876 20.7243 41.2797 19.0324 41.2797 16.9448V3.77956C41.2797 1.69229 39.5874 0 37.5001 0Z" fill="#8096E7"/>
<path d="M25.6378 20.2927L16.3287 10.9835C14.8527 9.50753 12.4596 9.50753 10.9835 10.9835C9.50747 12.4595 9.50747 14.8526 10.9835 16.3286L20.2928 25.6379C21.7688 27.114 24.1618 27.114 25.6378 25.6379C27.1138 24.1617 27.1138 21.7687 25.6378 20.2927Z" fill="#8096E7"/>
<path d="M16.9449 33.7205H3.77956C1.69213 33.7205 0 35.4126 0 37.5001C0 39.5875 1.69213 41.2796 3.77956 41.2796H16.9449C19.0324 41.2796 20.7245 39.5875 20.7245 37.5001C20.7243 35.4126 19.0322 33.7205 16.9449 33.7205Z" fill="#8096E7"/>
<path d="M25.6378 49.3621C24.1618 47.886 21.7688 47.886 20.2928 49.3621L10.9835 58.6714C9.50747 60.1474 9.50747 62.5405 10.9835 64.0165C12.4596 65.4925 14.8527 65.4925 16.3287 64.0165L25.6378 54.7073C27.1138 53.2313 27.1138 50.8383 25.6378 49.3621Z" fill="#8096E7"/>
<path d="M37.5001 54.2757C35.4129 54.2757 33.7206 55.9678 33.7206 58.0553V71.2205C33.7206 73.3079 35.4127 75 37.5001 75C39.5876 75 41.2797 73.3079 41.2797 71.2205V58.0553C41.2797 55.968 39.5874 54.2757 37.5001 54.2757Z" fill="#8096E7"/>
<path d="M64.0165 58.6716L54.7073 49.3623C53.2312 47.8861 50.8383 47.8861 49.3621 49.3623C47.8861 50.8384 47.8861 53.2315 49.3621 54.7075L58.6714 64.0166C60.1474 65.4926 62.5405 65.4926 64.0165 64.0166C65.4925 62.5406 65.4925 60.1474 64.0165 58.6716Z" fill="#8096E7"/>
<path d="M71.2206 33.7205H58.0552C55.9678 33.7205 54.2755 35.4125 54.2755 37.5001C54.2755 39.5875 55.9676 41.2796 58.0552 41.2796H71.2206C73.308 41.2796 75.0002 39.5875 75.0002 37.5001C75 35.4126 73.3079 33.7205 71.2206 33.7205Z" fill="#8096E7"/>
<path d="M64.0165 10.9835C62.5405 9.50753 60.1474 9.50753 58.6714 10.9835L49.3621 20.2927C47.8861 21.7687 47.8861 24.1617 49.3621 25.6379C50.8383 27.114 53.2312 27.114 54.7073 25.6379L64.0165 16.3286C65.4925 14.8526 65.4925 12.4595 64.0165 10.9835Z" fill="#8096E7"/>
</g>
<defs>
<clipPath id="clip0">
<rect width="75" height="75" fill="white"/>
</clipPath>
</defs>
</svg>
